<?xml version="1.0" encoding="UTF-8" standalone="no"?>
<!-- Generator: Adobe Illustrator 21.0.0, SVG Export Plug-In . SVG Version: 6.00 Build 0)  -->

<svg
   xmlns:dc="http://purl.org/dc/elements/1.1/"
   xmlns:cc="http://creativecommons.org/ns#"
   xmlns:rdf="http://www.w3.org/1999/02/22-rdf-syntax-ns#"
   xmlns:svg="http://www.w3.org/2000/svg"
   xmlns="http://www.w3.org/2000/svg"
   xmlns:sodipodi="http://sodipodi.sourceforge.net/DTD/sodipodi-0.dtd"
   xmlns:inkscape="http://www.inkscape.org/namespaces/inkscape"
   version="1.1"
   x="0px"
   y="0px"
   viewBox="0 0 15.36 15.36"
   xml:space="preserve"
   width="16"
   height="16"
   id="svg23"
   sodipodi:docname="calendar.svg"
   inkscape:version="0.92.2 5c3e80d, 2017-08-06"><metadata
     id="metadata29"><rdf:RDF><cc:Work
         rdf:about=""><dc:format>image/svg+xml</dc:format><dc:type
           rdf:resource="http://purl.org/dc/dcmitype/StillImage" /><dc:title></dc:title></cc:Work></rdf:RDF></metadata><defs
     id="defs27" /><sodipodi:namedview
     pagecolor="#ffffff"
     bordercolor="#666666"
     borderopacity="1"
     objecttolerance="10"
     gridtolerance="10"
     guidetolerance="10"
     inkscape:pageopacity="0"
     inkscape:pageshadow="2"
     inkscape:window-width="1005"
     inkscape:window-height="655"
     id="namedview25"
     showgrid="false"
     inkscape:zoom="12.046448"
     inkscape:cx="6.9042177"
     inkscape:cy="2.4932008"
     inkscape:window-x="0"
     inkscape:window-y="0"
     inkscape:window-maximized="0"
     inkscape:current-layer="svg23" /><g
     id="Layer_1"
     transform="translate(0,-32.64)" /><g
     id="Layer_2"
     transform="translate(0,-32.64)" /><g
     id="Layer_3"
     transform="matrix(0.37894737,0,0,0.37894737,-1.511864,-1.4418907)"><path
       style="clip-rule:evenodd;fill:#c7c7c7;fill-rule:evenodd"
       d="M 38,5 C 31.698,5 16.302,5 10,5 8.895,5 8,5.895 8,7 c 0,3.047 0,3 0,3 h 32 c 0,0 0,0.047 0,-3 C 40,5.895 39.105,5 38,5 Z M 14,8 c -0.552,0 -1,-0.448 -1,-1 0,-0.552 0.448,-1 1,-1 0.552,0 1,0.448 1,1 0,0.552 -0.448,1 -1,1 z m 20,0 c -0.552,0 -1,-0.448 -1,-1 0,-0.552 0.448,-1 1,-1 0.552,0 1,0.448 1,1 0,0.552 -0.448,1 -1,1 z"
       id="path4"
       inkscape:connector-curvature="0" /><path
       style="clip-rule:evenodd;fill:#1976d2;fill-rule:evenodd"
       d="M 44,11 C 44.103,10.418 42.591,9 42,9 34.889,9 13.111,9 6,9 5,9 3.897,10.418 4,11 4.823,15.664 7,26 7,26 h 34 c 0,0 2.177,-10.336 3,-15 z"
       id="path6"
       inkscape:connector-curvature="0" /><path
       style="clip-rule:evenodd;fill:#1e88e5;fill-rule:evenodd"
       d="M 41,26 H 7 c 0,0 -2.177,10.336 -3,15 0,1.146 0.792,2 2,2 7.111,0 28.889,0 36,0 0.591,0 2,-0.5 2,-2 -0.823,-4.664 -3,-15 -3,-15 z"
       id="path8"
       inkscape:connector-curvature="0" /><path
       style="clip-rule:evenodd;fill:#fafafa;fill-rule:evenodd"
       d="m 20.534,26 c 0.984,0.325 1.687,0.85 2.105,1.557 0.433,0.732 0.65,1.55 0.65,2.457 0,1.582 -0.519,2.826 -1.556,3.733 -1.037,0.906 -2.363,1.36 -3.977,1.36 -1.582,0 -2.892,-0.427 -3.93,-1.282 -1.038,-0.855 -1.536,-2.014 -1.497,-3.476 l 0.036,-0.072 h 2.242 c 0,0.914 0.28,1.642 0.841,2.182 0.56,0.541 1.33,0.811 2.308,0.811 0.994,0 1.773,-0.27 2.337,-0.811 0.564,-0.541 0.847,-1.34 0.847,-2.397 0,-1.073 -0.25,-1.864 -0.751,-2.373 -0.501,-0.509 -1.292,-0.763 -2.373,-0.763 H 15.765 V 26 Z"
       id="path10"
       inkscape:connector-curvature="0" /><rect
       x="31.636999"
       y="26"
       style="clip-rule:evenodd;fill:#fafafa;fill-rule:evenodd"
       width="2.349"
       height="8.8559999"
       id="rect12" /><path
       style="clip-rule:evenodd;fill:#e0e0e0;fill-rule:evenodd"
       d="m 14.727,22.036 h -2.254 l -0.024,-0.072 c -0.04,-1.312 0.435,-2.427 1.425,-3.345 0.99,-0.918 2.284,-1.377 3.882,-1.377 1.606,0 2.886,0.427 3.84,1.282 0.954,0.855 1.431,2.073 1.431,3.655 0,0.716 -0.217,1.429 -0.65,2.141 -0.433,0.712 -1.083,1.254 -1.95,1.628 L 20.534,26 h -4.77 v -0.911 h 2.051 c 1.042,0 1.779,-0.26 2.212,-0.781 0.433,-0.521 0.65,-1.246 0.65,-2.176 0,-0.994 -0.246,-1.749 -0.739,-2.266 -0.493,-0.517 -1.22,-0.775 -2.182,-0.775 -0.914,0 -1.648,0.268 -2.2,0.805 -0.534,0.518 -0.81,1.202 -0.829,2.14 z"
       id="path14"
       inkscape:connector-curvature="0" /><polygon
       style="clip-rule:evenodd;fill:#e0e0e0;fill-rule:evenodd"
       points="28.083,19.83 28.083,18.136 33.986,17.492 33.986,26 31.637,26 31.637,19.782 "
       id="polygon16" /><path
       style="clip-rule:evenodd;fill:#1976d2;fill-rule:evenodd"
       d="M 6,9 C 4.562,9 3.897,10.418 4,11 4.823,15.664 7,26 7,26"
       id="path18"
       inkscape:connector-curvature="0" /><path
       style="clip-rule:evenodd;fill:#1976d2;fill-rule:evenodd"
       d="M 41,26 C 41,26 43.177,15.664 44,11 44,9.375 42.591,9 42,9"
       id="path20"
       inkscape:connector-curvature="0" /></g></svg>
